<?xml version="1.0" encoding="UTF-8"?>
<svg width="36px" height="28px" viewBox="0 0 36 28" version="1.1" xmlns="http://www.w3.org/2000/svg" xmlns:xlink="http://www.w3.org/1999/xlink">
    <!-- Generator: Sketch 47.1 (45422) - http://www.bohemiancoding.com/sketch -->
    <title>001-medium-size</title>
    <desc>Created with Sketch.</desc>
    <defs></defs>
    <g id="Main" stroke="none" stroke-width="1" fill="none" fill-rule="evenodd">
        <g id="001-medium-size" fill-rule="nonzero" fill="#242424">
            <path d="M35.9895868,3.89342975 L34.0037107,3.89342975 C33.4866198,3.89342975 32.1335702,4.45514876 32.1335702,4.93333884 L32.1335702,22.2986529 C32.1335702,22.7780331 33.4866198,23.1710579 34.0037107,23.1710579 L35.9895868,23.1710579 L35.9895868,27.0265537 L23.1360992,27.0265537 L23.1360992,23.1710579 L25.7074215,23.1710579 L25.7074215,5.17797521 L25.2599504,5.17797521 L19.072562,27.0264793 L14.2820331,27.0264793 L8.17467769,5.17797521 L7.71210744,5.17797521 L7.71210744,23.1709835 L10.282314,23.1709835 L10.282314,27.0264793 L0,27.0264793 L0,23.1709835 L1.42609091,23.1709835 C1.98595041,23.1709835 2.57028099,22.7780331 2.57028099,22.2985785 L2.57028099,4.93333884 C2.57028099,4.45507438 1.98602479,3.89342975 1.42609091,3.89342975 L0,3.89342975 L0,0.0374876033 L13.3255785,0.0374876033 L17.6765207,15.4596198 L17.793595,15.4596198 L22.1874545,0.0374876033 L35.9895868,0.0374876033 L35.9895868,3.89342975 Z" id="Shape"></path>
        </g>
    </g>
</svg>