<?xml version="1.0" encoding="UTF-8"?>
<svg width="38px" height="24px" viewBox="0 0 38 24" version="1.1" xmlns="http://www.w3.org/2000/svg" xmlns:xlink="http://www.w3.org/1999/xlink">
    <!-- Generator: Sketch 47.1 (45422) - http://www.bohemiancoding.com/sketch -->
    <title>002-behance</title>
    <desc>Created with Sketch.</desc>
    <defs></defs>
    <g id="Main" stroke="none" stroke-width="1" fill="none" fill-rule="evenodd">
        <g id="002-behance" fill-rule="nonzero" fill="#242424">
            <path d="M15.63225,10.8076602 C16.42075,10.4110352 17.016875,9.96928516 17.425375,9.49191016 C18.152125,8.63216016 18.51075,7.49216016 18.51075,6.07903516 C18.51075,4.70391016 18.152125,3.52828516 17.434875,2.54266016 C16.237875,0.937160156 14.212,0.115410156 11.34775,0.0726601562 L0,0.0726601562 L0,23.2360352 L10.580625,23.2360352 C11.772875,23.2360352 12.87725,23.1339102 13.8985,22.9249102 C14.91975,22.7135352 15.80325,22.3264102 16.551375,21.7611602 C17.216375,21.2695352 17.772125,20.6591602 18.213875,19.9395352 C18.912125,18.8517852 19.26125,17.6191602 19.26125,16.2464102 C19.26125,14.9164102 18.954875,13.7835352 18.346875,12.8525352 C17.73175,11.9215352 16.82925,11.2399102 15.63225,10.8076602 Z M4.681125,4.09591016 L9.792125,4.09591016 C10.9155,4.09591016 11.84175,4.21703516 12.5685,4.45691016 C13.40925,4.80603516 13.829625,5.51616016 13.829625,6.59916016 C13.829625,7.57053516 13.509,8.24978516 12.874875,8.63216016 C12.236,9.01453516 11.407125,9.20691016 10.390625,9.20691016 L4.681125,9.20691016 L4.681125,4.09591016 Z M12.76325,18.8090352 C12.198,19.0821602 11.402375,19.2175352 10.3835,19.2175352 L4.681125,19.2175352 L4.681125,13.0401602 L10.461875,13.0401602 C11.468875,13.0472852 12.252625,13.1802852 12.813125,13.4296602 C13.810625,13.8809102 14.307,14.7074102 14.307,15.9162852 C14.307,17.3412852 13.794,18.3007852 12.76325,18.8090352 Z" id="Shape"></path>
            <rect id="Rectangle-path" x="24.282" y="1.15328516" width="10.062875" height="2.88325"></rect>
            <path d="M37.840875,12.5319102 C37.631875,11.1900352 37.171125,10.0096602 36.453875,8.99078516 C35.66775,7.83653516 34.67025,6.99103516 33.456625,6.45666016 C32.24775,5.91991016 30.886875,5.65153516 29.371625,5.65391016 C26.828,5.65391016 24.76175,6.44953516 23.163375,8.02891016 C21.56975,9.61303516 20.77175,11.8906602 20.77175,14.8594102 C20.77175,18.0252852 21.652875,20.3124102 23.424625,21.7160352 C25.18925,23.1220352 27.227,23.8226602 29.54025,23.8226602 C32.340375,23.8226602 34.51825,22.9890352 36.073875,21.3265352 C37.069,20.2767852 37.631875,19.2436602 37.755375,18.2295352 L33.119375,18.2295352 C32.851,18.7306602 32.539875,19.1225352 32.183625,19.4075352 C31.537625,19.9300352 30.696875,20.1912852 29.666125,20.1912852 C28.68525,20.1912852 27.854,19.9751602 27.1605,19.5452852 C26.01575,18.8565352 25.41725,17.6500352 25.34125,15.9329102 L37.992875,15.9329102 C38.011875,14.4532852 37.964375,13.3156602 37.840875,12.5319102 Z M25.45525,12.9760352 C25.6215,11.8621602 26.02525,10.9786602 26.6665,10.3255352 C27.30775,9.67478516 28.215,9.34703516 29.376375,9.34466016 C30.4475,9.34466016 31.342875,9.65103516 32.072,10.2661602 C32.791625,10.8860352 33.19775,11.7861602 33.280875,12.9760352 L25.45525,12.9760352 Z" id="Shape"></path>
        </g>
    </g>
</svg>