<?xml version="1.0" encoding="UTF-8"?>
<svg width="32px" height="32px" viewBox="0 0 32 32" version="1.1" xmlns="http://www.w3.org/2000/svg" xmlns:xlink="http://www.w3.org/1999/xlink">
    <!-- Generator: Sketch 47.1 (45422) - http://www.bohemiancoding.com/sketch -->
    <title>003-dribbble</title>
    <desc>Created with Sketch.</desc>
    <defs></defs>
    <g id="Main" stroke="none" stroke-width="1" fill="none" fill-rule="evenodd">
        <g id="003-dribbble" fill-rule="nonzero" fill="#242424">
            <path d="M15.9627397,0.000109589041 C7.14630137,0.000109589041 0,7.14739726 0,15.9628493 C0,24.7783014 7.14630137,31.9254795 15.9627397,31.9254795 C24.7791781,31.9254795 31.9254795,24.7781918 31.9254795,15.9627397 C31.9254795,7.14728767 24.7790685,0.000109589041 15.9627397,0.000109589041 Z M26.4371507,7.7260274 C28.1530959,9.9049863 29.203726,12.6265205 29.2864658,15.5886027 C25.7048767,14.9610959 22.6161096,14.942137 19.9472877,15.3651507 C19.6090959,14.5889315 19.2609315,13.8347397 18.9037808,13.1044384 C21.766137,11.9272329 24.3331507,10.2101918 26.4371507,7.7260274 Z M24.6004384,5.81852055 C22.7208767,8.10016438 20.3613151,9.67046575 17.6916164,10.7390685 C15.9825753,7.57249315 14.2247671,4.93358904 12.8200548,3.00712329 C13.8287123,2.76065753 14.8792329,2.6290411 15.9617534,2.6290411 C19.2569863,2.62794521 22.2718904,3.83210959 24.6004384,5.81852055 Z M10.2311233,3.92591781 C11.5889315,5.73863014 13.395726,8.36449315 15.1626301,11.584 C11.4174247,12.6126027 7.22816438,12.8899726 2.98805479,12.9019178 C3.92383562,8.93523288 6.63145205,5.64690411 10.2311233,3.92591781 Z M2.62980822,15.9616438 L2.64076712,15.5306301 L2.71254795,15.5306301 C7.46345205,15.5306301 12.1803836,15.2193973 16.4095342,13.9732603 C16.7248219,14.6147945 17.0350685,15.2732055 17.338411,15.9506849 C11.7744658,17.5819178 8.30553425,21.2432877 5.92810959,24.7271233 C3.87693151,22.3837808 2.62980822,19.3159452 2.62980822,15.9616438 Z M7.87156164,26.5490411 C10.1223014,23.1590137 13.2589589,19.8048219 18.3630685,18.3960548 C19.5552877,21.4509589 20.528,24.7850959 21.0428493,28.2869041 C19.4764932,28.9374247 17.7615342,29.2965479 15.963726,29.2965479 C12.9217534,29.2965479 10.1163836,28.272 7.87156164,26.5490411 Z M23.4951233,26.958137 C22.9493699,23.7585753 22.0554521,20.7067397 20.9789589,17.8773699 C23.3115616,17.5810411 25.9932055,17.6529315 29.1019178,18.2245479 C28.4804384,21.8379178 26.4032877,24.9597808 23.4951233,26.958137 Z" id="Shape"></path>
        </g>
    </g>
</svg>