<?xml version="1.0" encoding="UTF-8"?>
<svg width="32px" height="32px" viewBox="0 0 32 32" version="1.1" xmlns="http://www.w3.org/2000/svg" xmlns:xlink="http://www.w3.org/1999/xlink">
    <!-- Generator: Sketch 47.1 (45422) - http://www.bohemiancoding.com/sketch -->
    <title>005-instagram</title>
    <desc>Created with Sketch.</desc>
    <defs></defs>
    <g id="Main" stroke="none" stroke-width="1" fill="none" fill-rule="evenodd">
        <g id="005-instagram" fill-rule="nonzero" fill="#242424">
            <path d="M22,0 L10,0 C4.478,0 0,4.478 0,10 L0,22 C0,27.522 4.478,32 10,32 L22,32 C27.522,32 32,27.522 32,22 L32,10 C32,4.478 27.522,0 22,0 Z M29,22 C29,25.86 25.86,29 22,29 L10,29 C6.14,29 3,25.86 3,22 L3,10 C3,6.14 6.14,3 10,3 L22,3 C25.86,3 29,6.14 29,10 L29,22 Z" id="Shape"></path>
            <path d="M16,8 C11.582,8 8,11.582 8,16 C8,20.418 11.582,24 16,24 C20.418,24 24,20.418 24,16 C24,11.582 20.418,8 16,8 Z M16,21 C13.244,21 11,18.756 11,16 C11,13.242 13.244,11 16,11 C18.756,11 21,13.242 21,16 C21,18.756 18.756,21 16,21 Z" id="Shape"></path>
            <circle id="Oval" cx="24.6" cy="7.4" r="1.066"></circle>
        </g>
    </g>
</svg>